# 
# Wavefront OBJ file
# Created with Kaydara FBX
# 
mtllib w026.mtl

g w026_ncl1_1
v 0.143066 -0.009766 1.194824
v 0.120117 -0.009766 9.169922
v 0.000000 -0.421875 9.762207
v 0.000000 -0.441406 1.194824
v 0.143066 -0.009766 1.194824
v 0.000000 0.421875 1.194824
v 0.000000 0.402832 9.762207
v 0.120117 -0.009766 9.169922
v -0.143066 -0.009766 1.194824
v -0.120117 -0.009766 9.169922
v 0.000000 0.402832 9.762207
v 0.000000 0.421875 1.194824
v -0.143066 -0.009766 1.194824
v 0.000000 -0.441406 1.194824
v 0.000000 -0.421875 9.762207
v -0.120117 -0.009766 9.169922
v 0.000000 0.667969 1.285156
v 0.000000 0.947266 2.330078
v 0.257324 -0.007813 1.314941
v 0.227539 -0.007813 1.024902
v 0.257324 -0.007813 1.314941
v 0.000000 -0.955078 2.330078
v 0.000000 -0.675781 1.285156
v 0.227539 -0.007813 1.024902
v 0.000000 0.667969 1.285156
v -0.227539 0.000000 1.024902
v -0.257324 0.000000 1.314941
v 0.000000 0.947266 2.330078
v -0.104004 0.116699 1.092773
v 0.104004 -0.007324 1.092773
v 0.208496 -0.018066 -1.783691
v -0.145020 0.223633 -1.783691
v -0.104004 -0.119141 1.092773
v -0.104004 0.116699 1.092773
v -0.145020 0.223633 -1.783691
v -0.159668 -0.201660 -1.783691
v 0.104004 -0.007324 1.092773
v -0.104004 -0.119141 1.092773
v -0.159668 -0.201660 -1.783691
v 0.208496 -0.018066 -1.783691
v 0.000000 -0.675781 1.285156
v 0.000000 -0.955078 2.330078
v -0.257324 0.000000 1.314941
v -0.227539 0.000000 1.024902
v 0.000000 0.667969 1.285156
v 0.227539 -0.007813 1.024902
v 0.000000 1.394531 0.524414
v 0.000000 -1.402344 0.524414
v 0.000000 -0.675781 1.285156
v -0.227539 0.000000 1.024902
v -0.227539 0.000000 1.024902
v 0.000000 0.667969 1.285156
v 0.000000 1.394531 0.524414
v 0.227539 -0.007813 1.024902
v 0.000000 -0.675781 1.285156
v 0.000000 -1.402344 0.524414
v 0.000000 -1.402344 0.524414
v -0.227539 0.000000 1.024902
v 0.227539 -0.007813 1.024902
v -0.257324 0.000000 1.314941
v 0.257324 -0.007813 1.314941
v 0.000000 0.947266 2.330078
v -0.159668 -0.201660 -1.783691
v -0.145020 0.223633 -1.783691
v 0.208496 -0.018066 -1.783691
v 0.000000 -0.955078 2.330078
v 0.257324 -0.007813 1.314941
v -0.257324 0.000000 1.314941
v 0.227539 -0.007813 1.024902
v -0.227539 0.000000 1.024902
v 0.000000 1.394531 0.524414
v 0.000000 -0.009766 10.757324
v -0.120117 -0.009766 9.169922
v 0.000000 -0.421875 9.762207
v 0.000000 -0.421875 9.762207
v 0.120117 -0.009766 9.169922
v 0.000000 -0.009766 10.757324
v 0.000000 0.402832 9.762207
v -0.120117 -0.009766 9.169922
v 0.000000 -0.009766 10.757324
v 0.120117 -0.009766 9.169922
v 0.000000 0.402832 9.762207
v 0.000000 -0.009766 10.757324
vt 0.076172 0.765625
vt 0.626953 0.765625
vt 0.625000 0.972656
vt 0.076172 0.972656
vt 0.076172 0.457031
vt 0.076172 0.664063
vt 0.625000 0.664063
vt 0.626953 0.457031
vt 0.076172 0.457031
vt 0.626953 0.457031
vt 0.625000 0.664063
vt 0.076172 0.664063
vt 0.076172 0.765625
vt 0.076172 0.972656
vt 0.625000 0.972656
vt 0.626953 0.765625
vt 0.970703 0.167969
vt 0.957031 0.339844
vt 0.613281 0.355469
vt 0.613281 0.003906
vt 0.613281 0.355469
vt 0.269531 0.339844
vt 0.253906 0.167969
vt 0.613281 0.003906
vt 0.970703 0.167969
vt 0.613281 0.003906
vt 0.613281 0.355469
vt 0.957031 0.339844
vt 0.023438 0.226563
vt 0.037109 0.226563
vt 0.037109 0.281250
vt 0.023438 0.281250
vt 0.023438 0.226563
vt 0.037109 0.226563
vt 0.037109 0.281250
vt 0.023438 0.281250
vt 0.023438 0.226563
vt 0.037109 0.226563
vt 0.037109 0.281250
vt 0.023438 0.281250
vt 0.253906 0.167969
vt 0.269531 0.339844
vt 0.613281 0.355469
vt 0.613281 0.003906
vt 0.464844 0.355469
vt 0.320313 0.109375
vt 0.296875 0.355469
vt 0.296875 0.355469
vt 0.464844 0.355469
vt 0.320313 0.109375
vt 0.320313 0.109375
vt 0.464844 0.355469
vt 0.296875 0.355469
vt 0.320313 0.109375
vt 0.464844 0.355469
vt 0.296875 0.355469
vt 1.269531 0.132813
vt 1.269531 0.132813
vt 1.269531 0.132813
vt 1.232422 0.132813
vt 1.308594 0.132813
vt 1.269531 0.132813
vt 0.033203 0.246094
vt 0.041016 0.246094
vt 0.027344 0.250000
vt 1.269531 0.132813
vt 1.308594 0.132813
vt 1.232422 0.132813
vt 1.269531 0.132813
vt 1.269531 0.132813
vt 1.269531 0.132813
vt 0.988281 0.488281
vt 0.650391 0.488281
vt 0.648438 0.972656
vt 0.648438 0.972656
vt 0.650391 0.488281
vt 0.988281 0.488281
vt 0.648438 0.972656
vt 0.650391 0.488281
vt 0.988281 0.488281
vt 0.650391 0.488281
vt 0.648438 0.972656
vt 0.988281 0.488281
vn 0.954929 -0.296829 0.001953
vn 0.954929 -0.296829 0.001953
vn 0.954929 -0.296829 0.001953
vn 0.954929 -0.296829 0.001953
vn 0.954929 0.296829 0.001953
vn 0.954929 0.296829 0.001953
vn 0.954929 0.296829 0.001953
vn 0.954929 0.296829 0.001953
vn -0.954929 0.296829 0.001953
vn -0.954929 0.296829 0.001953
vn -0.954929 0.296829 0.001953
vn -0.954929 0.296829 0.001953
vn -0.954929 -0.296829 0.001953
vn -0.954929 -0.296829 0.001953
vn -0.954929 -0.296829 0.001953
vn -0.954929 -0.296829 0.001953
vn 0.931483 0.351503 -0.093734
vn 0.931483 0.351503 -0.093734
vn 0.931483 0.351503 -0.093734
vn 0.931483 0.351503 -0.093734
vn 0.930408 -0.353790 -0.095777
vn 0.930408 -0.353790 -0.095777
vn 0.930408 -0.353790 -0.095777
vn 0.930408 -0.353790 -0.095777
vn -0.930408 0.353790 -0.095777
vn -0.930408 0.353790 -0.095777
vn -0.930408 0.353790 -0.095777
vn -0.930408 0.353790 -0.095777
vn 0.545090 0.838150 0.019537
vn 0.545090 0.838150 0.019537
vn 0.545090 0.838150 0.019537
vn 0.545090 0.838150 0.019537
vn -0.999571 0.023427 0.017571
vn -0.999571 0.023427 0.017571
vn -0.999571 0.023427 0.017571
vn -0.999571 0.023427 0.017571
vn 0.454938 -0.890350 0.017573
vn 0.454938 -0.890350 0.017573
vn 0.454938 -0.890350 0.017573
vn 0.454938 -0.890350 0.017573
vn -0.931483 -0.351503 -0.093734
vn -0.931483 -0.351503 -0.093734
vn -0.931483 -0.351503 -0.093734
vn -0.931483 -0.351503 -0.093734
vn 0.946836 0.232316 0.222555
vn 0.946836 0.232316 0.222555
vn 0.946836 0.232316 0.222555
vn -0.946836 -0.232316 0.222555
vn -0.946836 -0.232316 0.222555
vn -0.946836 -0.232316 0.222555
vn -0.945787 0.234493 0.224722
vn -0.945787 0.234493 0.224722
vn -0.945787 0.234493 0.224722
vn 0.945787 -0.234493 0.224722
vn 0.945787 -0.234493 0.224722
vn 0.945787 -0.234493 0.224722
vn 0.005858 0.337815 -0.941194
vn 0.005858 0.337815 -0.941194
vn 0.005858 0.337815 -0.941194
vn -0.011713 -0.730096 0.683245
vn -0.011713 -0.730096 0.683245
vn -0.011713 -0.730096 0.683245
vn 0.000000 0.000000 -1.000000
vn 0.000000 0.000000 -1.000000
vn 0.000000 0.000000 -1.000000
vn 0.011713 0.730096 0.683245
vn 0.011713 0.730096 0.683245
vn 0.011713 0.730096 0.683245
vn -0.005858 -0.337815 -0.941194
vn -0.005858 -0.337815 -0.941194
vn -0.005858 -0.337815 -0.941194
vn -0.980903 -0.179767 0.074252
vn -0.980903 -0.179767 0.074252
vn -0.980903 -0.179767 0.074252
vn 0.980903 -0.179767 0.074252
vn 0.980903 -0.179767 0.074252
vn 0.980903 -0.179767 0.074252
vn -0.980903 0.179767 0.074252
vn -0.980903 0.179767 0.074252
vn -0.980903 0.179767 0.074252
vn 0.980903 0.179767 0.074252
vn 0.980903 0.179767 0.074252
vn 0.980903 0.179767 0.074252
usemtl a
f 1/1/1 2/2/2 3/3/3 4/4/4
f 5/5/5 6/6/6 7/7/7 8/8/8
f 9/9/9 10/10/10 11/11/11 12/12/12
f 13/13/13 14/14/14 15/15/15 16/16/16
f 17/17/17 18/18/18 19/19/19 20/20/20
f 21/21/21 22/22/22 23/23/23 24/24/24
f 25/25/25 26/26/26 27/27/27 28/28/28
f 29/29/29 30/30/30 31/31/31 32/32/32
f 33/33/33 34/34/34 35/35/35 36/36/36
f 37/37/37 38/38/38 39/39/39 40/40/40
f 41/41/41 42/42/42 43/43/43 44/44/44
f 45/45/45 46/46/46 47/47/47
f 48/48/48 49/49/49 50/50/50
f 51/51/51 52/52/52 53/53/53
f 54/54/54 55/55/55 56/56/56
f 57/57/57 58/58/58 59/59/59
f 60/60/60 61/61/61 62/62/62
f 63/63/63 64/64/64 65/65/65
f 66/66/66 67/67/67 68/68/68
f 69/69/69 70/70/70 71/71/71
f 72/72/72 73/73/73 74/74/74
f 75/75/75 76/76/76 77/77/77
f 78/78/78 79/79/79 80/80/80
f 81/81/81 82/82/82 83/83/83
