# Blender v2.74 (sub 0) OBJ File: ''
# www.blender.org
mtllib sword-01.mtl
o Grip
v 0.000000 1.839600 0.223600
v 0.158130 1.839600 0.158130
v 0.223600 1.839600 0.000000
v 0.158130 1.839600 -0.158130
v 0.000000 1.839600 -0.223600
v -0.158130 1.839600 -0.158130
v -0.223600 1.839600 0.000000
v -0.158130 1.839600 0.158130
v 0.000000 -2.743524 0.223600
v 0.158130 -2.743524 0.158130
v 0.223600 -2.743524 0.000000
v 0.158130 -2.743524 -0.158130
v 0.000000 -2.743524 -0.223600
v -0.158130 -2.743524 -0.158130
v -0.223600 -2.743524 0.000000
v -0.158130 -2.743524 0.158130
v 0.000000 1.839600 0.000000
v 0.000000 -3.061669 0.000000
v 0.000000 -3.061669 0.371012
v 0.262380 -3.061669 0.262380
v 0.371012 -3.061669 0.000000
v 0.262380 -3.061669 -0.262380
v 0.000000 -3.061669 -0.371012
v -0.262380 -3.061669 -0.262380
v -0.371012 -3.061669 0.000000
v -0.262380 -3.061669 0.262380
vt 0.000000 1.000000
vt 0.000000 0.000000
vt 0.125000 0.000000
vt 0.125000 1.000000
vt 0.250000 0.000000
vt 0.250000 1.000000
vt 0.375000 0.000000
vt 0.375000 1.000000
vt 0.500000 0.000000
vt 0.500000 1.000000
vt 0.625000 0.000000
vt 0.625000 1.000000
vt 0.750000 0.000000
vt 0.750000 1.000000
vt 0.875000 0.000000
vt 0.875000 1.000000
vt 1.000000 0.000000
vt 1.000000 1.000000
vn 0.382500 0.000000 0.923900
vn 0.466100 -0.659800 0.589400
vn 0.086400 -0.659700 0.746600
vn 0.923900 0.000000 0.382500
vn 0.746400 -0.659800 0.086800
vn 0.589400 -0.659800 0.466100
vn 0.923900 0.000000 -0.382500
vn 0.589400 -0.659800 -0.466100
vn 0.746400 -0.659800 -0.086800
vn 0.382500 0.000000 -0.923900
vn 0.086800 -0.659800 -0.746400
vn 0.466100 -0.659800 -0.589400
vn -0.382500 0.000000 -0.923900
vn -0.466100 -0.659800 -0.589400
vn -0.086400 -0.659700 -0.746600
vn -0.923900 0.000000 -0.382500
vn -0.746400 -0.659800 -0.086800
vn -0.589400 -0.659800 -0.466100
vn -0.923900 0.000000 0.382500
vn -0.589400 -0.659800 0.466100
vn -0.746400 -0.659800 0.086800
vn -0.382500 0.000000 0.923900
vn -0.086800 -0.659800 0.746400
vn -0.466100 -0.659800 0.589400
vn 0.000000 1.000000 0.000000
vn 0.000000 -1.000000 0.000000
vn 0.284200 -0.811000 0.511400
vn 0.160400 -0.811000 0.562700
vn 0.562700 -0.811000 0.160400
vn 0.511400 -0.811000 0.284200
vn 0.511400 -0.811000 -0.284200
vn 0.562700 -0.811000 -0.160400
vn 0.160400 -0.811000 -0.562700
vn 0.284200 -0.811000 -0.511400
vn -0.284200 -0.811000 -0.511400
vn -0.160400 -0.811000 -0.562700
vn -0.562700 -0.811000 -0.160400
vn -0.511400 -0.811000 -0.284200
vn -0.511400 -0.811000 0.284200
vn -0.562700 -0.811000 0.160400
vn -0.160400 -0.811000 0.562700
vn -0.284200 -0.811000 0.511400
usemtl b0b0b0
s 1
f 1/1/1 9/2/2 10/3/3 2/4/1
f 2/4/4 10/3/5 11/5/6 3/6/4
f 3/6/7 11/5/8 12/7/9 4/8/7
f 4/8/10 12/7/11 13/9/12 5/10/10
f 5/10/13 13/9/14 14/11/15 6/12/13
f 6/12/16 14/11/17 15/13/18 7/14/16
f 7/14/19 15/13/20 16/15/21 8/16/19
f 8/16/22 16/15/23 9/17/24 1/18/22
f 1/1/25 2/4/25 17/2/25
f 2/4/25 3/6/25 17/2/25
f 3/6/25 4/8/25 17/2/25
f 4/8/25 5/10/25 17/2/25
f 5/10/25 6/12/25 17/2/25
f 6/12/25 7/14/25 17/2/25
f 7/14/25 8/16/25 17/2/25
f 8/16/25 1/18/25 17/2/25
f 20/3/26 19/2/26 18/1/26
f 21/5/26 20/3/26 18/1/26
f 22/7/26 21/5/26 18/1/26
f 23/9/26 22/7/26 18/1/26
f 24/11/26 23/9/26 18/1/26
f 25/13/26 24/11/26 18/1/26
f 26/15/26 25/13/26 18/1/26
f 19/17/26 26/15/26 18/1/26
f 10/2/3 9/2/2 19/2/27 20/2/28
f 11/2/6 10/2/5 20/2/29 21/2/30
f 12/2/9 11/2/8 21/2/31 22/2/32
f 13/2/12 12/2/11 22/2/33 23/2/34
f 14/2/15 13/2/14 23/2/35 24/2/36
f 15/2/18 14/2/17 24/2/37 25/2/38
f 16/2/21 15/2/20 25/2/39 26/2/40
f 9/2/24 16/2/23 26/2/41 19/2/42
o Blade
v 0.050000 15.704762 0.250000
v 0.050000 15.704762 -0.250000
v 0.050000 2.016100 0.250000
v 0.050000 2.016100 -0.250000
v -0.050000 15.704762 -0.250000
v -0.050000 15.704762 0.250000
v -0.050000 2.016100 -0.250000
v -0.050000 2.016100 0.250000
v 0.000000 15.704762 -0.750000
v 0.000000 15.704762 0.752145
v 0.000000 2.016100 0.750000
v 0.000000 2.016100 -0.750000
v 0.000000 17.295795 0.001072
vt 0.000000 1.000000
vt 0.000000 0.000000
vt 1.000000 0.000000
vt 1.000000 1.000000
vt 0.500000 0.000000
vt 0.500000 0.500000
vt 0.500000 1.000000
vn 1.000000 0.000000 0.000000
vn -1.000000 0.000000 0.000000
vn -0.999100 0.041800 0.000000
vn 0.999100 0.041800 0.000000
vn 0.000000 -1.000000 0.000000
vn -0.995100 -0.000000 0.099300
vn 0.995100 -0.000000 0.099300
vn 0.995000 0.000000 -0.099500
vn -0.995000 0.000000 -0.099500
usemtl b0b0b0
s 1
f 27/19/43 29/20/43 30/21/43 28/22/43
f 31/19/44 33/20/44 34/21/44 32/22/44
f 31/19/45 32/20/45 36/23/45 39/24/45 35/25/45
f 35/25/46 39/24/46 36/23/46 27/21/46 28/22/46
f 34/19/47 33/20/47 38/23/47 37/25/47
f 37/25/47 38/23/47 30/21/47 29/22/47
f 32/19/48 34/20/48 37/23/48 36/25/48
f 36/25/49 37/23/49 29/21/49 27/22/49
f 28/19/50 30/20/50 38/23/50 35/25/50
f 35/25/51 38/23/51 33/21/51 31/22/51
o Crossguard
v 0.319900 2.016000 1.674234
v 0.319900 2.016000 1.554320
v 0.319900 2.016000 -0.719450
v 0.319900 2.016000 -1.501134
v 0.319900 1.925900 1.674234
v 0.319900 1.925900 0.719450
v 0.319900 1.925900 -0.719450
v 0.319900 1.925900 -2.116997
v 0.319900 1.835800 1.190661
v 0.319900 1.835800 0.719450
v 0.319900 1.835800 -1.892712
v 0.319900 1.835800 -2.116997
v -0.319900 2.016000 -1.501134
v -0.319900 2.016000 -0.719450
v -0.319900 2.016000 1.554320
v -0.319900 2.016000 1.674234
v -0.319900 1.925900 -2.116997
v -0.319900 1.925900 -0.719450
v -0.319900 1.925900 0.719450
v -0.319900 1.925900 1.674234
v -0.319900 1.835800 -2.116997
v -0.319900 1.835800 -1.892712
v -0.319900 1.835800 0.719450
v -0.319900 1.835800 1.208248
v -0.106633 1.893176 -2.263814
v 0.106633 1.893176 -2.263814
v -0.106633 2.016000 -0.719450
v 0.106633 2.016000 -0.719450
v -0.106633 2.016000 1.687885
v 0.106633 2.016000 1.687885
v -0.106633 2.264837 2.076705
v 0.106633 2.264837 2.076705
v -0.106633 1.835800 1.674234
v 0.106633 1.835800 1.674234
v -0.106633 1.835800 0.719450
v 0.106633 1.835800 0.719450
v -0.106633 1.835800 -1.892712
v 0.106633 1.835800 -1.892712
v -0.106633 1.617844 -2.498974
v 0.106633 1.617844 -2.498974
v -0.106633 2.174737 2.076705
v 0.106633 2.174737 2.076705
v 0.106633 1.707944 -2.498974
v -0.106633 1.707944 -2.498974
vt 0.000000 1.000000
vt 0.000000 0.500000
vt 0.333333 0.500000
vt 0.333333 1.000000
vt 0.666667 0.500000
vt 0.666667 1.000000
vt 1.000000 0.500000
vt 1.000000 1.000000
vt 0.000000 0.000000
vt 0.333333 0.000000
vt 0.666667 0.000000
vt 1.000000 0.000000
vt 0.000000 0.666667
vt 0.333333 0.666667
vt 0.666667 0.666667
vt 1.000000 0.666667
vt 0.000000 0.333333
vt 0.333333 0.333333
vt 0.666667 0.333333
vt 1.000000 0.333333
vn 1.000000 0.000000 0.000000
vn -1.000000 0.000000 0.000000
vn 0.189800 0.980500 -0.051800
vn 0.000000 0.996900 -0.079300
vn -0.189800 0.980500 -0.051800
vn 0.000000 1.000000 0.000000
vn 0.028100 0.897900 -0.439200
vn 0.000000 0.842300 -0.539000
vn -0.028100 0.897900 -0.439200
vn 0.000000 -1.000000 0.000000
vn -0.257900 -0.934500 0.245200
vn 0.000000 -0.941000 0.338300
vn 0.257900 -0.934500 0.245200
vn -0.883600 0.000000 0.468200
vn 0.000000 0.000000 1.000000
vn 0.883600 0.000000 0.468200
vn -0.354200 -0.838400 0.414200
vn 0.000000 -0.764900 0.644200
vn 0.355400 -0.841300 0.407400
vn 0.065800 0.949400 -0.307200
vn 0.000000 0.785600 -0.618800
vn -0.065800 0.949400 -0.307200
vn 0.873100 0.000000 -0.487500
vn 0.000000 0.000000 -1.000000
vn -0.873100 0.000000 -0.487500
usemtl b0b0b0
s 1
f 40/26/52 44/27/52 45/28/52 41/29/52
f 41/29/52 45/28/52 46/30/52 42/31/52
f 42/31/52 46/30/52 47/32/52 43/33/52
f 44/27/52 48/34/52 49/35/52 45/28/52
f 45/28/52 49/35/52 50/36/52 46/30/52
f 46/30/52 50/36/52 51/37/52 47/32/52
f 52/26/53 56/27/53 57/28/53 53/29/53
f 53/29/53 57/28/53 58/30/53 54/31/53
f 54/31/53 58/30/53 59/32/53 55/33/53
f 56/27/53 60/34/53 61/35/53 57/28/53
f 57/28/53 61/35/53 62/36/53 58/30/53
f 58/30/53 62/36/53 63/37/53 59/32/53
f 52/26/54 53/38/54 66/39/54 64/29/54
f 64/29/55 66/39/55 67/40/55 65/31/55
f 65/31/56 67/40/56 42/41/56 43/33/56
f 53/38/57 54/42/57 68/43/57 66/39/57
f 66/39/57 68/43/57 69/44/57 67/40/57
f 67/40/57 69/44/57 41/45/57 42/41/57
f 54/42/58 55/34/58 70/35/58 68/43/58
f 68/43/59 70/35/59 71/36/59 69/44/59
f 69/44/60 71/36/60 40/37/60 41/45/60
f 63/26/61 62/38/61 74/39/61 72/29/61
f 72/29/61 74/39/61 75/40/61 73/31/61
f 73/31/61 75/40/61 49/41/61 48/33/61
f 62/38/61 61/42/61 76/43/61 74/39/61
f 74/39/61 76/43/61 77/44/61 75/40/61
f 75/40/61 77/44/61 50/45/61 49/41/61
f 61/42/62 60/34/62 78/35/62 76/43/62
f 76/43/63 78/35/63 79/36/63 77/44/63
f 77/44/64 79/36/64 51/37/64 50/45/64
f 55/26/65 59/27/65 80/28/65 70/29/65
f 70/29/66 80/28/66 81/30/66 71/31/66
f 71/31/67 81/30/67 44/32/67 40/33/67
f 59/27/68 63/34/68 72/35/68 80/28/68
f 80/28/69 72/35/69 73/36/69 81/30/69
f 81/30/70 73/36/70 48/37/70 44/32/70
f 43/26/71 47/27/71 82/28/71 65/29/71
f 65/29/72 82/28/72 83/30/72 64/31/72
f 64/31/73 83/30/73 56/32/73 52/33/73
f 47/27/74 51/34/74 79/35/74 82/28/74
f 82/28/75 79/35/75 78/36/75 83/30/75
f 83/30/76 78/36/76 60/37/76 56/32/76
o Cylinder
v 0.000000 -3.062000 0.739284
v 0.266722 -3.062000 0.525321
v 0.376900 -3.062000 0.000000
v 0.266544 -3.062000 -0.530506
v 0.000000 -3.062000 -0.750150
v -0.266544 -3.062000 -0.530506
v -0.376900 -3.062000 0.000000
v -0.266544 -3.062000 0.530506
v 0.000000 -3.373864 0.341512
v 0.266544 -3.373864 0.241517
v 0.376900 -3.373864 0.000000
v 0.266544 -3.373864 -0.241517
v 0.000000 -3.373864 -0.341512
v -0.266544 -3.373864 -0.241517
v -0.376900 -3.373864 0.000000
v -0.266544 -3.373864 0.241517
v 0.000000 -3.062000 0.000000
v 0.000000 -3.457106 0.000000
vt 0.000000 1.000000
vt 0.000000 0.000000
vt 0.125000 0.000000
vt 0.125000 1.000000
vt 0.250000 0.000000
vt 0.250000 1.000000
vt 0.375000 0.000000
vt 0.375000 1.000000
vt 0.500000 0.000000
vt 0.500000 1.000000
vt 0.625000 0.000000
vt 0.625000 1.000000
vt 0.750000 0.000000
vt 0.750000 1.000000
vt 0.875000 0.000000
vt 0.875000 1.000000
vt 1.000000 0.000000
vt 1.000000 1.000000
vn 0.369300 -0.685600 0.627300
vn 0.953500 -0.125000 0.274200
vn 0.953800 -0.126300 -0.272700
vn 0.371100 -0.692300 -0.618900
vn -0.371100 -0.692300 -0.618900
vn -0.953800 -0.126300 -0.272700
vn -0.953800 -0.126300 0.272700
vn -0.362900 -0.689800 0.626500
vn 0.000000 1.000000 0.000000
vn 0.143000 -0.966000 0.215200
vn 0.000000 -0.971600 0.236800
vn 0.000000 -1.000000 0.000000
vn 0.215700 -0.976500 0.000000
vn 0.143000 -0.966000 -0.215200
vn 0.000000 -0.971600 -0.236800
vn -0.143000 -0.966000 -0.215200
vn -0.215700 -0.976500 -0.000000
vn -0.143000 -0.966000 0.215200
usemtl b0b0b0
s 1
f 84/46/77 92/47/77 93/48/77 85/49/77
f 85/49/78 93/48/78 94/50/78 86/51/78
f 86/51/79 94/50/79 95/52/79 87/53/79
f 87/53/80 95/52/80 96/54/80 88/55/80
f 88/55/81 96/54/81 97/56/81 89/57/81
f 89/57/82 97/56/82 98/58/82 90/59/82
f 90/59/83 98/58/83 99/60/83 91/61/83
f 91/61/84 99/60/84 92/62/84 84/63/84
f 84/46/85 85/49/85 100/47/85
f 85/49/85 86/51/85 100/47/85
f 86/51/85 87/53/85 100/47/85
f 87/53/85 88/55/85 100/47/85
f 88/55/85 89/57/85 100/47/85
f 89/57/85 90/59/85 100/47/85
f 90/59/85 91/61/85 100/47/85
f 91/61/85 84/63/85 100/47/85
f 93/48/86 92/47/87 101/46/88
f 94/50/89 93/48/86 101/46/88
f 95/52/90 94/50/89 101/46/88
f 96/54/91 95/52/90 101/46/88
f 97/56/92 96/54/91 101/46/88
f 98/58/93 97/56/92 101/46/88
f 99/60/94 98/58/93 101/46/88
f 92/62/87 99/60/94 101/46/88
