# Created by MKDS Course Modifier
mtllib sword.mtl
g polygon0
usemtl mt_swB
v 0.1867676 0.01147461 -0.03979492
v 0.2575684 -0.02758789 -0.03027344
v 0.1315918 -0.03222656 0
v 0.2575684 -0.02758789 0.03027344
v 0.1867676 0.01147461 0.03979492
vn -0.1796875 -0.5273438 -0.8300781
vn -0.08007813 -0.875 -0.4765625
vn -0.1542969 -0.9882813 0
vn -0.08007813 -0.875 0.4765625
vn -0.1796875 -0.5273438 0.8300781
vt 1.263672 -0.2402344
vt 1.371094 -0.2460938
vt 1.253906 -0.2763672
vt 1.371094 -0.2460938
vt 1.263672 -0.2402344
f 1/1/1 2/2/2 3/3/3
f 2/2/2 4/4/4 3/3/3
f 3/3/3 4/4/4 5/5/5
v -0.007080078 -0.06762695 -0.03613281
v -0.1086426 -0.08300781 -0.0002441406
v -0.03149414 -0.03881836 0.0222168
v -0.04296875 -0.09814453 0.02172852
v 0.01757813 -0.09667969 0.0222168
vn -0.3027344 0.796875 -0.5214844
vn -0.90625 -0.1347656 -0.4023438
vn -0.3476563 0.4765625 0.8066406
vn -0.4335938 -0.3691406 0.8222656
vn 0.4140625 -0.421875 0.8066406
vt -0.004882813 0
vt 0.2460938 -0.1269531
vt -0.004882813 -0.1220703
vt 0.1191406 0
vt -0.004882813 0.1220703
f 6/6/6 7/7/7 8/8/8
f 7/7/7 9/9/9 8/8/8
f 8/8/8 9/9/9 10/10/10
v 0.07446289 0.1887207 0.03027344
v 0.09838867 0.2424316 0
v 0.03686523 0.2565918 0
v 0.07446289 0.1887207 -0.03027344
v 0.03051758 0.2021484 0
vn -0.08398438 -0.09570313 0.9921875
vn 0.8203125 0.5722656 0
vn -0.65625 0.7558594 0
vn -0.08398438 -0.09570313 -0.9921875
vn -0.8613281 -0.5078125 0
vt 0.6279297 0.1787109
vt 0.8203125 0
vt 0.6279297 -0.1787109
vt 0.6279297 0.1787109
vt 0.8203125 0
f 11/11/11 12/12/12 13/13/13
f 12/12/12 14/14/14 13/13/13
f 13/13/13 14/14/14 15/15/15
v -0.03808594 -0.06079102 0.01513672
v -0.005126953 -0.09960938 0.01513672
v 0.677002 0.5134277 0.001220703
v -0.02172852 -0.08007813 -0.02294922
v -0.03808594 -0.06079102 0.01513672
vn -0.546875 0.6914063 0.4707031
vn 0.5957031 -0.6503906 0.4707031
vn 0.2851563 0.2363281 -0.9277344
vn 0.01953125 0.01757813 -1
vn -0.546875 0.6914063 0.4707031
vt 0.3681641 -0.2539063
vt 0.3681641 -0.2539063
vt 0.3681641 -2.374023
vt 0.3681641 -0.2539063
vt 0.3681641 -0.2539063
f 16/16/16 17/17/17 18/18/18
f 17/17/17 19/19/19 18/18/18
f 18/18/18 19/19/19 20/20/20
v 0.3146973 -0.01269531 0
v 0.2575684 -0.02758789 0.03027344
v 0.3183594 -0.07568359 0
v 0.2636719 -0.07299805 0
v 0.2575684 -0.02758789 -0.03027344
vn 0.6992188 0.7148438 0
vn -0.08398438 -0.09570313 0.9921875
vn 0.6367188 -0.7695313 0
vn -0.6425781 -0.765625 0
vn -0.08398438 -0.09570313 -0.9921875
vt 0.8203125 0
vt 0.6279297 0.1787109
vt 0.6279297 -0.1787109
vt 0.8203125 0
vt 0.6279297 0.1787109
f 21/21/21 22/22/22 23/23/23
f 22/22/22 24/24/24 23/23/23
f 23/23/23 24/24/24 25/25/25
v 0.1010742 0.1125488 -0.03979492
v 0.04907227 0.06518555 0
v 0.07446289 0.1887207 -0.03027344
v 0.07446289 0.1887207 0.03027344
vn -0.5507813 -0.08984375 -0.8300781
vn -1 0.009765625 0
vn -0.8769531 0.06445313 -0.4765625
vn -0.8769531 0.06445313 0.4765625
vt 1.263672 -0.2402344
vt 1.253906 -0.2763672
vt 1.371094 -0.2460938
vt 1.371094 -0.2460938
f 26/26/26 27/27/27 28/28/28
f 27/27/27 29/29/29 28/28/28
v 0.1938477 0.104248 -0.07104492
v 0.2375488 0.05273438 0
v 0.2028809 0.03857422 0
v 0.1938477 0.104248 0.07104492
vn -0.3066406 -0.2597656 -0.9160156
vn 0.3789063 -0.9257813 0
vn 0.75 -0.6601563 0
vn -0.3066406 -0.2597656 0.9160156
vt 0.2509766 0.5009766
vt 0.2509766 0.6953125
vt 0.3476563 0.6953125
vt 0.2509766 0.5009766
f 30/30/30 31/31/31 32/32/32
f 31/31/31 33/33/33 32/32/32
v 0.2575684 -0.02758789 0.03027344
v 0.3146973 -0.01269531 0
v 0.1867676 0.01147461 0.03979492
v 0.2028809 0.03857422 0
vn -0.08398438 -0.09570313 0.9921875
vn 0.6992188 0.7148438 0
vn 0.3398438 0.5722656 0.7460938
vn 0.3261719 0.7148438 0.6191406
vt 1.294922 -0.2226563
vt 1.256836 -0.1914063
vt 1.373047 -0.2294922
vt 1.373047 -0.1914063
f 34/34/34 35/35/35 36/36/36
f 35/35/35 37/37/37 36/36/36
v 0.1306152 0.1240234 0
v 0.1010742 0.1125488 -0.03979492
v 0.09838867 0.2424316 0
v 0.07446289 0.1887207 -0.03027344
vn 0.7578125 0.2050781 -0.6191406
vn 0.6210938 0.2421875 -0.7460938
vn 0.8203125 0.5722656 0
vn -0.08398438 -0.09570313 -0.9921875
vt 1.373047 -0.1914063
vt 1.373047 -0.2294922
vt 1.256836 -0.1914063
vt 1.294922 -0.2226563
f 38/38/38 39/39/39 40/40/40
f 39/39/39 41/41/41 40/40/40
v 0.07446289 0.1887207 0.03027344
v 0.1010742 0.1125488 0.03979492
v 0.09838867 0.2424316 0
v 0.1306152 0.1240234 0
vn -0.08398438 -0.09570313 0.9921875
vn 0.6210938 0.2421875 0.7460938
vn 0.8203125 0.5722656 0
vn 0.7578125 0.2050781 0.6191406
vt 1.294922 -0.2226563
vt 1.373047 -0.2294922
vt 1.256836 -0.1914063
vt 1.373047 -0.1914063
f 42/42/42 43/43/43 44/44/44
f 43/43/43 45/45/45 44/44/44
v 0.2028809 0.03857422 0
v 0.3146973 -0.01269531 0
v 0.1867676 0.01147461 -0.03979492
v 0.2575684 -0.02758789 -0.03027344
vn 0.3261719 0.7148438 -0.6191406
vn 0.6992188 0.7148438 0
vn 0.3398438 0.5722656 -0.7460938
vn -0.08398438 -0.09570313 -0.9921875
vt 1.373047 -0.1914063
vt 1.256836 -0.1914063
vt 1.373047 -0.2294922
vt 1.294922 -0.2226563
f 46/46/46 47/47/47 48/48/48
f 47/47/47 49/49/49 48/48/48
v 0.1938477 0.104248 -0.07104492
v 0.1306152 0.1240234 0
v 0.1501465 0.1557617 0
v 0.1938477 0.104248 0.07104492
vn -0.3066406 -0.2597656 -0.9160156
vn -0.5292969 0.8496094 0
vn -0.8515625 0.5253906 0
vn -0.3066406 -0.2597656 0.9160156
vt 0.2509766 0.5009766
vt 0.3476563 0.6953125
vt 0.2509766 0.6953125
vt 0.2509766 0.5009766
f 50/50/50 51/51/51 52/52/52
f 51/51/51 53/53/53 52/52/52
v 0.1306152 0.1240234 0
v 0.1938477 0.104248 -0.07104492
v 0.137207 0.05615234 -0.03149414
v 0.2028809 0.03857422 0
vn -0.5292969 0.8496094 0
vn -0.3066406 -0.2597656 -0.9160156
vn 0.2246094 0.1894531 -0.9550781
vn 0.75 -0.6601563 0
vt 0.1962891 0.609375
vt -0.03710938 0.7207031
vt -0.03710938 0.4902344
vt 0.1962891 0.609375
f 54/54/54 55/55/55 56/56/56
f 55/55/55 57/57/57 56/56/56
v 0.1306152 0.1240234 0
v 0.137207 0.05615234 0.03149414
v 0.1938477 0.104248 0.07104492
v 0.2028809 0.03857422 0
vn -0.5292969 0.8496094 0
vn 0.2246094 0.1894531 0.9550781
vn -0.3066406 -0.2597656 0.9160156
vn 0.75 -0.6601563 0
vt 0.1962891 0.609375
vt -0.03710938 0.4902344
vt -0.03710938 0.7207031
vt 0.1962891 0.609375
f 58/58/58 59/59/59 60/60/60
f 59/59/59 61/61/61 60/60/60
v 0.04907227 0.06518555 0
v 0.09033203 0.01635742 0.07104492
v 0.137207 0.05615234 0.03149414
v 0.1315918 -0.03222656 0
vn -0.3007813 0.2636719 0.9160156
vn 0.4121094 0.3496094 0.8417969
vn -0.02539063 -0.02148438 0.9980469
vn 0.2109375 -0.3398438 0.9160156
vt 0.2626953 0.3007813
vt -0.03710938 0.3007813
vt -0.03710938 0.4902344
vt 0.2626953 0.3007813
f 62/62/62 63/63/63 64/64/64
f 63/63/63 65/65/65 64/64/64
v 0.04907227 0.06518555 0
v 0.137207 0.05615234 -0.03149414
v 0.09033203 0.01635742 -0.07104492
v 0.1315918 -0.03222656 0
vn -0.3007813 0.2636719 -0.9160156
vn -0.04882813 -0.04101563 -0.9980469
vn 0.4121094 0.3496094 -0.8417969
vn 0.2109375 -0.3398438 -0.9160156
vt 0.2626953 0.3007813
vt -0.03710938 0.4902344
vt -0.03710938 0.3007813
vt 0.2626953 0.3007813
f 66/66/66 67/67/67 68/68/68
f 67/67/67 69/69/69 68/68/68
v -0.007080078 -0.06762695 -0.03613281
v 0.01757813 -0.09667969 0.0222168
v -0.03857422 -0.1655273 -0.0002441406
v -0.04296875 -0.09814453 0.02172852
vn 0.7363281 -0.4296875 -0.5214844
vn 0.4140625 -0.421875 0.8066406
vn -0.2832031 -0.8710938 -0.4023438
vn -0.4335938 -0.3691406 0.8222656
vt -0.004882813 0
vt -0.004882813 0.1220703
vt 0.2460938 0.1269531
vt 0.1191406 0
f 70/70/70 71/71/71 72/72/72
f 71/71/71 73/73/73 72/72/72
v -0.03857422 -0.1655273 -0.0002441406
v -0.04296875 -0.09814453 -0.0222168
v -0.007080078 -0.06762695 -0.03613281
v -0.1086426 -0.08300781 -0.0002441406
vn -0.2832031 -0.8710938 -0.4023438
vn -0.5742188 -0.4863281 -0.65625
vn -0.2167969 -0.1835938 -0.9589844
vn -0.90625 -0.1347656 -0.4023438
vt 0.2460938 0.1269531
vt 0.1191406 0
vt -0.004882813 0
vt 0.2460938 -0.1269531
f 74/74/74 75/75/75 76/76/76
f 75/75/75 77/77/77 76/76/76
v -0.1086426 -0.08300781 -0.0002441406
v -0.04296875 -0.09814453 -0.0222168
v -0.04296875 -0.09814453 0.02172852
v -0.03857422 -0.1655273 -0.0002441406
vn -0.90625 -0.1347656 -0.4023438
vn -0.5742188 -0.4863281 -0.65625
vn -0.4335938 -0.3691406 0.8222656
vn -0.2832031 -0.8710938 -0.4023438
vt 0.3662109 -0.2646484
vt 0.2626953 -0.2646484
vt 0.2626953 -0.2646484
vt 0.3662109 -0.2646484
f 78/78/78 79/79/79 80/80/80
f 79/79/79 81/81/81 80/80/80
v 0.6450195 0.4255371 -0.03857422
v 0.1955566 0.06738281 -0.02001953
v 0.157959 0.1118164 -0.02001953
v 0.5849609 0.496582 -0.03857422
v 0.6450195 0.4255371 -0.03857422
v 0.6706543 0.5080566 -0.04101563
v 0.7246094 0.5539551 0
v 0.6809082 0.4121094 0
v 0.7246094 0.5539551 0
v 0.6706543 0.5080566 -0.04101563
v 0.5849609 0.496582 -0.03857422
v 0.5776367 0.5339355 0
v 0.7246094 0.5539551 0
v 0.5776367 0.5339355 0
v 0.5849609 0.496582 0.03857422
v 0.6706543 0.5080566 0.04101563
v 0.6809082 0.4121094 0
v 0.6450195 0.4255371 0.03857422
v 0.1955566 0.06738281 0.02001953
v 0.2070313 0.05371094 0
v 0.1938477 0.104248 -0.07104492
v 0.1501465 0.1557617 0
v 0.1938477 0.104248 0.07104492
v 0.2375488 0.05273438 0
v 0.09033203 0.01635742 -0.07104492
v 0.1315918 -0.03222656 0
v 0.09033203 0.01635742 0.07104492
v 0.04907227 0.06518555 0
v 0.6450195 0.4255371 0.03857422
v 0.5849609 0.496582 0.03857422
v 0.157959 0.1118164 0.02001953
v 0.1955566 0.06738281 0.02001953
v 0.157959 0.1118164 0.02001953
v 0.5849609 0.496582 0.03857422
v 0.5776367 0.5339355 0
v 0.1462402 0.1252441 0
v 0.5849609 0.496582 -0.03857422
v 0.157959 0.1118164 -0.02001953
v 0.1462402 0.1252441 0
v 0.5776367 0.5339355 0
v 0.6706543 0.5080566 0.04101563
v 0.6450195 0.4255371 0.03857422
v 0.6809082 0.4121094 0
v 0.7246094 0.5539551 0
v 0.6809082 0.4121094 0
v 0.2070313 0.05371094 0
v 0.1955566 0.06738281 -0.02001953
v 0.6450195 0.4255371 -0.03857422
vn 0.01953125 0.01757813 -1
vn 0.01953125 0.01757813 -1
vn 0.01953125 0.01757813 -1
vn 0.01953125 0.01757813 -1
vn 0.5898438 -0.4257813 -0.6875
vn 0.6894531 -0.2207031 -0.6894531
vn 0.6894531 -0.2207031 -0.6894531
vn 0.5898438 -0.4257813 -0.6875
vn -0.1035156 0.7167969 -0.6894531
vn -0.1035156 0.7167969 -0.6894531
vn -0.3222656 0.6523438 -0.6875
vn -0.3222656 0.6523438 -0.6875
vn -0.1035156 0.7167969 0.6894531
vn -0.3222656 0.6523438 0.6875
vn -0.3222656 0.6523438 0.6875
vn -0.1035156 0.7167969 0.6894531
vn 0.5898438 -0.4257813 0.6875
vn 0.5898438 -0.4257813 0.6875
vn 0.4589844 -0.6074219 0.6484375
vn 0.4589844 -0.6074219 0.6484375
vn 0.7636719 0.6464844 0
vn 0.7636719 0.6464844 0
vn 0.7636719 0.6464844 0
vn 0.7636719 0.6464844 0
vn -0.7636719 -0.6464844 0
vn -0.7636719 -0.6464844 0
vn -0.7636719 -0.6464844 0
vn -0.7636719 -0.6464844 0
vn -0.02539063 -0.02148438 0.9980469
vn -0.02539063 -0.02148438 0.9980469
vn -0.02539063 -0.02148438 0.9980469
vn -0.02539063 -0.02148438 0.9980469
vn -0.5234375 0.5527344 0.6484375
vn -0.3222656 0.6523438 0.6875
vn -0.3222656 0.6523438 0.6875
vn -0.5234375 0.5527344 0.6484375
vn -0.3222656 0.6523438 -0.6875
vn -0.5234375 0.5527344 -0.6484375
vn -0.5234375 0.5527344 -0.6484375
vn -0.3222656 0.6523438 -0.6875
vn 0.6894531 -0.2207031 0.6894531
vn 0.5898438 -0.4257813 0.6875
vn 0.5898438 -0.4257813 0.6875
vn 0.6894531 -0.2207031 0.6894531
vn 0.5898438 -0.4257813 -0.6875
vn 0.4589844 -0.6074219 -0.6484375
vn 0.4589844 -0.6074219 -0.6484375
vn 0.5898438 -0.4257813 -0.6875
vt 0.4892578 -0.06152344
vt 0.46875 -0.4931641
vt 0.40625 -0.4931641
vt 0.3857422 -0.06152344
vt 3.514648 0.1992188
vt 3.544922 0.375
vt 3.613281 0.4833984
vt 3.561523 0.1826172
vt 3.491211 0.1894531
vt 3.491211 0.3271484
vt 3.425781 0.4677734
vt 3.379883 0.4316406
vt 2.491211 0.4550781
vt 2.379883 0.2919922
vt 2.425781 0.2685547
vt 2.491211 0.3632813
vt 2.503906 -0.03417969
vt 2.616211 -0.1201172
vt 2.616211 -0.4453125
vt 2.503906 -0.359375
vt 0.8935547 -0.1445313
vt 0.8935547 -0.2929688
vt 1.106445 -0.2929688
vt 1.106445 -0.1445313
vt 0.8935547 -0.1445313
vt 1.106445 -0.1445313
vt 1.106445 -0.2929688
vt 0.8935547 -0.2929688
vt 0.4892578 -0.06152344
vt 0.3857422 -0.06152344
vt 0.40625 -0.4931641
vt 0.46875 -0.4931641
vt 2.380859 -0.1708984
vt 2.380859 -0.4619141
vt 2.493164 -0.3876953
vt 2.493164 -0.09570313
vt 3.380859 -0.40625
vt 3.380859 -0.1396484
vt 3.493164 -0.0703125
vt 3.493164 -0.3378906
vt 2.514648 0.1240234
vt 2.401367 0.05957031
vt 2.430664 0.01367188
vt 2.624023 0.1240234
vt 3.503906 -0.07714844
vt 3.503906 -0.3544922
vt 3.616211 -0.4316406
vt 3.616211 -0.1542969
f 82/82/82 83/83/83 84/84/84 85/85/85
f 86/86/86 87/87/87 88/88/88 89/89/89
f 90/90/90 91/91/91 92/92/92 93/93/93
f 94/94/94 95/95/95 96/96/96 97/97/97
f 98/98/98 99/99/99 100/100/100 101/101/101
f 102/102/102 103/103/103 104/104/104 105/105/105
f 106/106/106 107/107/107 108/108/108 109/109/109
f 110/110/110 111/111/111 112/112/112 113/113/113
f 114/114/114 115/115/115 116/116/116 117/117/117
f 118/118/118 119/119/119 120/120/120 121/121/121
f 122/122/122 123/123/123 124/124/124 125/125/125
f 126/126/126 127/127/127 128/128/128 129/129/129
v 0.1315918 -0.03222656 0
v 0.1867676 0.01147461 0.03979492
v 0.137207 0.05615234 0.03149414
v 0.2028809 0.03857422 0
v 0.1867676 0.01147461 -0.03979492
v 0.137207 0.05615234 -0.03149414
v 0.137207 0.05615234 0.03149414
v 0.1867676 0.01147461 0.03979492
v 0.2028809 0.03857422 0
v 0.04907227 0.06518555 0
v 0.1010742 0.1125488 0.03979492
v 0.07446289 0.1887207 0.03027344
v 0.6706543 0.5080566 -0.04101563
v 0.6450195 0.4255371 -0.03857422
v 0.5849609 0.496582 -0.03857422
v 0.137207 0.05615234 0.03149414
v 0.1306152 0.1240234 0
v 0.1010742 0.1125488 0.03979492
v 0.6706543 0.5080566 0.04101563
v 0.5849609 0.496582 0.03857422
v 0.6450195 0.4255371 0.03857422
v 0.04907227 0.06518555 0
v 0.137207 0.05615234 0.03149414
v 0.1010742 0.1125488 0.03979492
v 0.1306152 0.1240234 0
v 0.137207 0.05615234 -0.03149414
v 0.1010742 0.1125488 -0.03979492
v 0.2636719 -0.07299805 0
v 0.2575684 -0.02758789 0.03027344
v 0.2575684 -0.02758789 -0.03027344
v -0.03149414 -0.03881836 0.0222168
v 0.01757813 -0.09667969 0.0222168
v -0.007080078 -0.06762695 -0.03613281
v 0.137207 0.05615234 -0.03149414
v 0.04907227 0.06518555 0
v 0.1010742 0.1125488 -0.03979492
v 0.03686523 0.2565918 0
v 0.03051758 0.2021484 0
v 0.07446289 0.1887207 0.03027344
v 0.03051758 0.2021484 0
v 0.07446289 0.1887207 -0.03027344
v 0.07446289 0.1887207 0.03027344
v 0.137207 0.05615234 -0.03149414
v 0.1867676 0.01147461 -0.03979492
v 0.1315918 -0.03222656 0
v 0.3183594 -0.07568359 0
v 0.2575684 -0.02758789 -0.03027344
v 0.3146973 -0.01269531 0
vn 0.2109375 -0.3398438 0.9160156
vn -0.4023438 -0.2832031 0.8710938
vn -0.02539063 -0.02148438 0.9980469
vn 0.75 -0.6601563 0
vn 0.46875 0.6308594 -0.6191406
vn 0.2246094 0.1894531 -0.9550781
vn 0.2246094 0.1894531 0.9550781
vn 0.46875 0.6308594 0.6191406
vn 0.75 -0.6601563 0
vn -1 0.009765625 0
vn -0.5507813 -0.08984375 0.8300781
vn -0.8769531 0.06445313 0.4765625
vn 0.01953125 0.01757813 -1
vn 0.01953125 0.01757813 -1
vn 0.01953125 0.01757813 -1
vn 0.2246094 0.1894531 0.9550781
vn -0.5292969 0.8496094 0
vn 0.6992188 0.359375 0.6191406
vn -0.02539063 -0.02148438 0.9980469
vn -0.02539063 -0.02148438 0.9980469
vn -0.02539063 -0.02148438 0.9980469
vn -0.3007813 0.2636719 0.9160156
vn -0.02539063 -0.02148438 0.9980469
vn -0.3457031 -0.3496094 0.8710938
vn -0.5292969 0.8496094 0
vn 0.2246094 0.1894531 -0.9550781
vn 0.6992188 0.359375 -0.6191406
vn -0.6425781 -0.765625 0
vn -0.08398438 -0.09570313 0.9921875
vn -0.08398438 -0.09570313 -0.9921875
vn 0.7636719 0.6464844 0
vn 0.7636719 0.6464844 0
vn 0.7636719 0.6464844 0
vn -0.04882813 -0.04101563 -0.9980469
vn -0.3007813 0.2636719 -0.9160156
vn -0.3457031 -0.3496094 -0.8710938
vn -0.65625 0.7558594 0
vn -0.8613281 -0.5078125 0
vn -0.08398438 -0.09570313 0.9921875
vn -0.8613281 -0.5078125 0
vn -0.08398438 -0.09570313 -0.9921875
vn -0.08398438 -0.09570313 0.9921875
vn -0.04882813 -0.04101563 -0.9980469
vn -0.4023438 -0.2832031 -0.8710938
vn 0.2109375 -0.3398438 -0.9160156
vn 0.6367188 -0.7695313 0
vn -0.08398438 -0.09570313 -0.9921875
vn 0.6992188 0.7148438 0
vt 2.24707 0.6943359
vt 2.254883 0.5
vt 2.016602 0.5
vt 1.246094 0.6943359
vt 1.254883 0.5
vt 1.018555 0.5
vt 1.018555 0.5
vt 1.254883 0.5
vt 1.246094 0.6943359
vt 1.253906 -0.2763672
vt 1.263672 -0.2402344
vt 1.371094 -0.2460938
vt 0.4375 -0.006835938
vt 0.4892578 -0.06152344
vt 0.3857422 -0.06152344
vt 1.018555 0.5
vt 1.246094 0.6943359
vt 1.254883 0.5
vt 0.4375 -0.006835938
vt 0.3857422 -0.06152344
vt 0.4892578 -0.06152344
vt 2.24707 0.6943359
vt 2.016602 0.5
vt 2.254883 0.5
vt 1.246094 0.6943359
vt 1.018555 0.5
vt 1.254883 0.5
vt 0.1005859 -0.1142578
vt 0.002929688 -0.1142578
vt 0.002929688 -0.1142578
vt 0.2431641 -0.2939453
vt 0.2431641 -0.1621094
vt 0.2431641 -0.2275391
vt 2.016602 0.5
vt 2.24707 0.6943359
vt 2.254883 0.5
vt 0.6279297 -0.1787109
vt 0.8203125 0
vt 0.6279297 0.1787109
vt 0.1005859 -0.1142578
vt 0.002929688 -0.1142578
vt 0.002929688 -0.1142578
vt 2.016602 0.5
vt 2.254883 0.5
vt 2.24707 0.6943359
vt 0.6279297 -0.1787109
vt 0.6279297 0.1787109
vt 0.8203125 0
f 130/130/130 131/131/131 132/132/132
f 133/133/133 134/134/134 135/135/135
f 136/136/136 137/137/137 138/138/138
f 139/139/139 140/140/140 141/141/141
f 142/142/142 143/143/143 144/144/144
f 145/145/145 146/146/146 147/147/147
f 148/148/148 149/149/149 150/150/150
f 151/151/151 152/152/152 153/153/153
f 154/154/154 155/155/155 156/156/156
f 157/157/157 158/158/158 159/159/159
f 160/160/160 161/161/161 162/162/162
f 163/163/163 164/164/164 165/165/165
f 166/166/166 167/167/167 168/168/168
f 169/169/169 170/170/170 171/171/171
f 172/172/172 173/173/173 174/174/174
f 175/175/175 176/176/176 177/177/177
